<?xml version="1.0" encoding="UTF-8"?>
<svg id="Warstwa_2" data-name="Warstwa 2" xmlns="http://www.w3.org/2000/svg" viewBox="0 0 314.04 47.21">
  <defs>
    <style>
      .cls-1 {
        fill: #fff;
      }

      .cls-2 {
        fill: #ff6b3e;
      }
    </style>
  </defs>
  <g id="Warstwa_2-2" data-name="Warstwa 2">
    <g>
      <g>
        <path class="cls-1" d="M53.57,19.28c-1.74,1.79-3.83,3.03-6.28,3.73,2.18.48,3.9,1.55,5.16,3.2,1.26,1.66,1.9,3.59,1.9,5.82,0,.7-.07,1.37-.2,2.03-.65,3.83-2.53,6.88-5.62,9.12-3.09,2.25-7.04,3.37-11.83,3.37H15.33L23.43.65h20.66c4.14,0,7.34.85,9.61,2.55,2.27,1.7,3.4,4.05,3.4,7.06,0,.74-.06,1.5-.2,2.29-.48,2.7-1.59,4.95-3.33,6.73ZM43.17,31.38c0-1.26-.46-2.25-1.37-2.97-.92-.72-2.18-1.08-3.79-1.08h-8.11l-1.83,10.33h8.24c1.92,0,3.44-.44,4.58-1.31,1.13-.87,1.85-2.13,2.16-3.79.09-.52.13-.92.13-1.18ZM43.11,18.04c1.13-.83,1.83-2.03,2.09-3.6.04-.26.07-.61.07-1.05,0-1.26-.42-2.23-1.24-2.91-.83-.68-2.05-1.01-3.66-1.01h-7.32l-1.7,9.81h7.26c1.87,0,3.38-.41,4.51-1.24Z"/>
        <path class="cls-1" d="M86.5,38.44h-17.13l-4.18,8.11h-11.7L78.2.65h12.94l8.5,45.89h-11.83l-1.31-8.11ZM85.2,29.94l-2.68-17-8.76,17h11.44Z"/>
        <path class="cls-1" d="M141.17,3.89c2.48,2.16,3.73,4.96,3.73,8.4,0,1-.09,1.94-.26,2.81-.52,3.05-1.85,5.77-3.99,8.17-2.14,2.4-4.99,4.1-8.56,5.1l7.39,18.17h-12.62l-6.47-17.32h-2.68l-3.07,17.32h-11.18L111.56.65h18.76c4.75,0,8.37,1.08,10.85,3.24ZM133.33,14.19c0-1.39-.45-2.47-1.34-3.24-.89-.76-2.21-1.14-3.96-1.14h-6.93l-2.03,11.5h6.93c2.05,0,3.67-.5,4.87-1.5,1.2-1,1.97-2.42,2.32-4.25.09-.7.13-1.15.13-1.37Z"/>
        <path class="cls-1" d="M183.6,19.28c-1.74,1.79-3.83,3.03-6.28,3.73,2.18.48,3.9,1.55,5.16,3.2,1.26,1.66,1.9,3.59,1.9,5.82,0,.7-.07,1.37-.2,2.03-.65,3.83-2.53,6.88-5.62,9.12-3.09,2.25-7.04,3.37-11.83,3.37h-21.37L153.47.65h20.66c4.14,0,7.34.85,9.61,2.55,2.27,1.7,3.4,4.05,3.4,7.06,0,.74-.06,1.5-.2,2.29-.48,2.7-1.59,4.95-3.33,6.73ZM173.21,31.38c0-1.26-.46-2.25-1.37-2.97-.92-.72-2.18-1.08-3.79-1.08h-8.11l-1.83,10.33h8.24c1.92,0,3.44-.44,4.58-1.31,1.13-.87,1.85-2.13,2.16-3.79.09-.52.13-.92.13-1.18ZM173.14,18.04c1.13-.83,1.83-2.03,2.09-3.6.04-.26.07-.61.07-1.05,0-1.26-.42-2.23-1.24-2.91-.83-.68-2.05-1.01-3.66-1.01h-7.32l-1.7,9.81h7.26c1.87,0,3.38-.41,4.51-1.24Z"/>
        <path class="cls-1" d="M199.17,44.58c-2.94-1.61-5.22-3.88-6.83-6.8-1.61-2.92-2.42-6.28-2.42-10.07,0-5.36,1.15-10.14,3.46-14.35,2.31-4.21,5.52-7.48,9.64-9.84s8.79-3.53,14.02-3.53c3.92,0,7.36.8,10.33,2.39,2.96,1.59,5.25,3.83,6.86,6.73,1.61,2.9,2.42,6.22,2.42,9.97,0,5.36-1.16,10.16-3.46,14.41-2.31,4.25-5.54,7.56-9.67,9.94-4.14,2.38-8.85,3.56-14.12,3.56-3.88,0-7.29-.81-10.23-2.42ZM218.68,34.45c2.18-1.48,3.87-3.47,5.07-5.98,1.2-2.5,1.8-5.22,1.8-8.14,0-3.14-.87-5.6-2.61-7.39-1.74-1.79-4.18-2.68-7.32-2.68-2.88,0-5.42.74-7.62,2.22-2.2,1.48-3.9,3.45-5.1,5.92-1.2,2.46-1.8,5.17-1.8,8.14,0,3.14.87,5.61,2.62,7.42,1.74,1.81,4.2,2.71,7.39,2.71,2.88,0,5.4-.74,7.58-2.22Z"/>
        <path class="cls-1" d="M251.01,38.04h14.64l-1.5,8.5h-25.82L246.43.65h11.18l-6.6,37.39Z"/>
        <path class="cls-1" d="M304.53,2.91c3.07,1.5,5.43,3.62,7.06,6.34,1.63,2.72,2.45,5.92,2.45,9.58,0,1.26-.15,2.85-.46,4.77-.78,4.49-2.47,8.48-5.07,11.96s-5.88,6.19-9.87,8.11c-3.99,1.92-8.38,2.88-13.17,2.88h-17.19L276.39.65h17.19c4.23,0,7.88.75,10.95,2.25ZM296.98,33.47c2.79-2.35,4.53-5.64,5.23-9.87.22-1.31.33-2.4.33-3.27,0-3.22-.98-5.72-2.94-7.49-1.96-1.76-4.75-2.65-8.37-2.65h-5.36l-4.71,26.8h5.29c4.23,0,7.73-1.18,10.52-3.53Z"/>
      </g>
      <polygon class="cls-2" points="19.48 0 11.15 47.21 0 47.21 8.22 0 19.48 0"/>
    </g>
  </g>
</svg>