<?xml version="1.0" encoding="UTF-8"?>
<svg id="Warstwa_2" data-name="Warstwa 2" xmlns="http://www.w3.org/2000/svg" viewBox="0 0 73.09 59.2">
  <defs>
    <style>
      .cls-1 {
        fill: #fff;
      }

      .cls-2 {
        fill: #ff6b3e;
      }
    </style>
  </defs>
  <g id="Warstwa_3" data-name="Warstwa 3">
    <g>
      <path class="cls-1" d="M68.53,24.04c-2.25,2.31-4.95,3.91-8.1,4.81,2.81.62,5.03,2,6.66,4.13,1.63,2.14,2.45,4.64,2.45,7.51,0,.9-.08,1.77-.25,2.61-.84,4.95-3.26,8.87-7.25,11.76-3.99,2.9-9.08,4.34-15.26,4.34h-27.58L29.65,0h26.65c5.34,0,9.47,1.1,12.4,3.29,2.92,2.19,4.39,5.23,4.39,9.11,0,.96-.08,1.94-.25,2.95-.62,3.49-2.05,6.38-4.3,8.69h0ZM55.12,39.64c0-1.63-.59-2.91-1.77-3.84s-2.81-1.39-4.89-1.39h-10.46l-2.36,13.33h10.63c2.47,0,4.44-.56,5.9-1.69,1.46-1.12,2.39-2.75,2.78-4.89.11-.67.17-1.18.17-1.52ZM55.03,22.44c1.46-1.07,2.36-2.61,2.7-4.64.06-.34.08-.79.08-1.35,0-1.63-.54-2.88-1.6-3.75-1.07-.87-2.64-1.31-4.72-1.31h-9.44l-2.19,12.65h9.36c2.42,0,4.36-.53,5.82-1.6h-.01Z"/>
      <polygon class="cls-2" points="24.85 0 14.4 59.2 0 59.2 10.46 0 24.85 0"/>
    </g>
  </g>
</svg>